<svg width="60" height="60" viewBox="0 0 60 60" fill="none" xmlns="http://www.w3.org/2000/svg">
<path d="M39.6004 15.5684C40.3918 14.3169 41.7871 13.4852 43.3774 13.4852C45.8445 13.4852 47.8445 15.4851 47.8445 17.9523C47.8445 18.0896 47.8373 18.2253 47.8252 18.3595C48.8729 18.0718 49.9211 18.0574 50.8477 18.3332C50.854 18.207 50.8573 18.08 50.8573 17.9523C50.8573 13.8212 47.5084 10.4723 43.3773 10.4723C40.9566 10.4723 38.8056 11.6233 37.4385 13.4067L39.6004 15.5684Z" fill="#FED2A4"/>
<path d="M13.1929 30.4041C13.052 30.1437 12.9317 29.8789 12.8309 29.6126C10.7279 29.2501 9.12775 27.4184 9.12775 25.212C9.12775 22.745 11.1277 20.745 13.5948 20.745C14.8378 20.745 15.9619 21.2531 16.7717 22.0725C16.9529 21.329 17.3113 20.6542 17.8569 20.1086C18.0591 19.9065 18.2796 19.7313 18.5139 19.5799C17.1987 18.4303 15.4787 17.7322 13.5947 17.7322C9.46361 17.7322 6.11475 21.081 6.11475 25.2121C6.11475 28.1608 7.82147 30.7099 10.3004 31.9282C10.9767 31.1623 12.0024 30.6186 13.1929 30.4041Z" fill="#FED2A4"/>
<path d="M33.538 22.7444C34.4515 22.3722 35.5745 22.5662 36.6854 23.2043C37.0523 20.2234 38.6352 17.9815 40.5322 17.9815C41.9289 17.9815 43.1543 19.1976 43.8505 21.0282C44.0276 20.8093 44.2178 20.596 44.4224 20.3904L32.7206 8.68861C32.48 8.44803 32.0876 8.46397 31.8627 8.71932C29.3893 11.5275 28.8025 15.414 30.0971 18.7364C31.6495 18.8537 32.9664 20.474 33.538 22.7444Z" fill="#FB2B3A"/>
<path d="M33.5381 22.7444C33.9246 22.5869 34.3485 22.5308 34.7933 22.5672C32.0059 19.082 31.9481 14.1347 34.6205 10.5885L32.7206 8.68861C32.48 8.44803 32.0876 8.46397 31.8627 8.71932C29.3893 11.5275 28.8025 15.414 30.0971 18.7364C31.6496 18.8537 32.9665 20.474 33.5381 22.7444Z" fill="#E41F2D"/>
<path d="M25.5609 12.9623C28.8194 9.70375 28.9623 4.50941 25.9896 1.08121C25.7667 0.824101 25.3719 0.810038 25.1313 1.05062L13.6493 12.5327C13.4087 12.7732 13.4227 13.1679 13.6798 13.3909C17.108 16.3636 22.3024 16.2208 25.5609 12.9623Z" fill="#FD4755"/>
<path d="M15.8512 10.7226C15.7762 10.6576 15.7244 10.5771 15.691 10.4908L13.6493 12.5326C13.4087 12.7732 13.4227 13.168 13.6798 13.3909C17.1082 16.3636 22.3024 16.2207 25.5609 12.9622C26.1976 12.3255 26.7137 11.6142 27.1125 10.8573C23.8441 13.558 19.0695 13.5133 15.8512 10.7226Z" fill="#FB2B3A"/>
<path d="M11.1319 37.2048H20.3148C20.3146 37.18 20.313 37.1554 20.313 37.1304C20.313 36.6653 20.3576 36.211 20.4388 35.7694V35.7695C18.1049 35.1694 16.4694 33.7792 16.4694 32.1592C16.4694 30.7629 17.685 29.5377 19.5149 28.8414C19.294 28.6621 19.0784 28.47 18.871 28.2626C17.6172 27.0088 16.8739 25.4807 16.6816 24.018C15.6354 23.8186 14.6099 23.9963 13.8053 24.6078C12.2343 25.8018 12.0275 28.2489 13.193 30.4041C11.2226 30.7591 9.70222 32.0147 9.47406 33.6891C9.29394 35.0097 9.95828 36.2943 11.1319 37.2048Z" fill="#80D261"/>
<path d="M32.2318 36.6343C31.9849 34.4009 30.0921 32.6633 27.7928 32.6633C25.3257 32.6633 23.3257 34.6633 23.3257 37.1304C23.3257 37.1554 23.3272 37.18 23.3276 37.2048H31.8238C31.9721 37.0164 32.1087 36.8258 32.2318 36.6343Z" fill="#017B4E"/>
<path d="M16.4692 32.1592C16.4692 33.7792 18.1048 35.1693 20.4386 35.7695C21.0788 32.2886 24.1267 29.6505 27.7927 29.6505C29.9259 29.6505 31.8489 30.5449 33.2115 31.9774C33.2331 31.6136 33.2777 31.2511 33.34 30.8911C33.263 30.7692 33.1879 30.6449 33.1147 30.5181C31.3073 27.3877 31.3648 23.9709 33.2431 22.8865C33.3384 22.8314 33.4373 22.7855 33.5381 22.7445C32.9444 20.3864 31.5468 18.7295 29.9163 18.7295C28.5196 18.7295 27.2942 19.9457 26.598 21.7762C26.4163 21.5518 26.2216 21.3329 26.011 21.1225C23.4794 18.5909 19.8287 18.137 17.857 20.1087C15.8852 22.0805 16.3392 25.7311 18.8708 28.2627C19.0782 28.4701 19.2938 28.6622 19.5147 28.8415C17.6848 29.5377 16.4692 30.7629 16.4692 32.1592Z" fill="#017B4E"/>
<path d="M16.4692 32.1592C16.4692 33.7792 18.1048 35.1693 20.4386 35.7695C20.5545 35.1395 20.7487 34.5372 21.0118 33.9732C20.54 33.4306 20.273 32.8137 20.273 32.1593C20.273 30.9693 21.156 29.9035 22.5497 29.1836C22.8943 29.0056 22.9553 28.5429 22.6809 28.2689C22.6788 28.2668 22.6768 28.2648 22.6747 28.2627C20.1431 25.7311 19.6892 22.0804 21.6609 20.1087C22.0497 19.7199 22.5045 19.4269 23.0024 19.224C21.0891 18.5772 19.1256 18.8401 17.8571 20.1087C15.8853 22.0805 16.3393 25.7311 18.8709 28.2627C19.0783 28.4701 19.2939 28.6622 19.5148 28.8415C17.6848 29.5377 16.4692 30.7629 16.4692 32.1592Z" fill="#026841"/>
<path d="M50.9338 28.0936C51.1547 27.9143 51.3703 27.7222 51.5778 27.5148C54.1094 24.9832 54.5632 21.3324 52.5916 19.3607C50.6198 17.389 46.9691 17.8428 44.4375 20.3745C44.2269 20.5851 44.0322 20.8039 43.8505 21.0283C43.1543 19.1977 41.9289 17.9816 40.5323 17.9816C38.6352 17.9816 37.0524 20.2235 36.6855 23.2044C35.4519 22.4959 34.2027 22.3325 33.2431 22.8866C31.3648 23.971 31.3074 27.3877 33.1146 30.5182C33.1875 30.6444 33.2624 30.7681 33.3389 30.8894C33.6344 29.1849 34.3839 27.5438 35.5899 26.1621C35.8285 25.8887 36.2487 25.8729 36.5053 26.1295L47.581 37.2051H49.3881C49.3459 36.583 49.1236 35.9192 48.7437 35.2598C51.7309 34.8958 53.9793 33.3113 53.9793 31.4116C53.9793 30.015 52.7637 28.7898 50.9338 28.0936Z" fill="#68CA44"/>
<path d="M35.2729 37.1304C35.2729 37.1553 35.2713 37.1798 35.2711 37.2048H47.5814L36.5057 26.1292C36.2491 25.8725 35.829 25.8884 35.5903 26.1618C34.1289 27.8361 33.3372 29.8911 33.2129 31.9785C34.4885 33.32 35.2729 35.133 35.2729 37.1304Z" fill="white"/>
<path d="M40.7085 37.2048H45.1677C45.6781 36.9598 46.1569 36.6269 46.5799 36.2037L39.2962 28.9199C37.2847 30.9313 37.2847 34.1923 39.2962 36.2037C39.7193 36.6268 40.1981 36.9597 40.7085 37.2048Z" fill="#FEDF74"/>
<path d="M40.7117 37.2048H42.6425C42.1326 36.9599 41.6546 36.6264 41.232 36.2037C39.5559 34.5276 39.2778 31.984 40.3953 30.0186L39.2966 28.9199C37.2852 30.9313 37.2852 34.1923 39.2966 36.2037C39.7204 36.6275 40.2004 36.9597 40.7117 37.2048Z" fill="#FED402"/>
<path d="M23.3278 37.2049C23.3274 37.18 23.3259 37.1554 23.3259 37.1305C23.3259 34.6634 25.3258 32.6634 27.7929 32.6634C30.2601 32.6634 32.26 34.6633 32.26 37.1305C32.26 37.1554 32.2585 37.18 32.2581 37.2049H35.271C35.2713 37.18 35.2729 37.1554 35.2729 37.1305C35.2729 32.9994 31.924 29.6505 27.7929 29.6505C23.6619 29.6505 20.313 32.9994 20.313 37.1305C20.313 37.1554 20.3146 37.1799 20.3149 37.2049H23.3278Z" fill="#FED2A4"/>
<path d="M21.2289 59.121H37.8755C38.1024 59.121 38.3281 59.0788 38.5379 58.9921C46.7364 55.6071 52.6073 47.7296 53.0828 38.427C53.1167 37.7609 52.5789 37.2047 51.9119 37.2047H7.19237C6.52545 37.2047 5.98756 37.7609 6.02155 38.427C6.49698 47.7296 12.368 55.607 20.5664 58.9921C20.7762 59.0788 21.0019 59.121 21.2289 59.121Z" fill="#D8ECFE"/>
<path d="M10.4761 38.4271C10.4421 37.761 10.98 37.2048 11.6469 37.2048H7.19237C6.52545 37.2048 5.98756 37.761 6.02155 38.4271C6.49698 47.7297 12.368 55.6071 20.5664 58.9922C20.7763 59.0788 21.0019 59.1211 21.2289 59.1211H25.6834C25.4564 59.1211 25.2307 59.0789 25.0209 58.9922C16.8225 55.6071 10.9515 47.7297 10.4761 38.4271Z" fill="#C4E2FF"/>
<path d="M51.9119 37.2048H7.19237C6.52545 37.2048 5.98756 37.761 6.02155 38.4271C6.09666 39.8964 6.30666 41.33 6.63889 42.716H52.4655C52.7978 41.33 53.0078 39.8964 53.0829 38.4271C53.1169 37.761 52.5789 37.2048 51.9119 37.2048Z" fill="#EAF6FF"/>
<path d="M6.02155 38.4271C6.09666 39.8964 6.30666 41.33 6.63889 42.716H11.0934C10.7612 41.33 10.5512 39.8964 10.4761 38.4271C10.4421 37.761 10.98 37.2048 11.6469 37.2048H7.19237C6.52545 37.2048 5.98756 37.761 6.02155 38.4271Z" fill="#D8ECFE"/>
<path d="M44.346 6.25434C44.6297 6.17828 44.8149 5.90395 44.7763 5.61273C44.6228 4.45516 44.1019 3.33707 43.2124 2.44762C42.3229 1.55816 41.2048 1.03727 40.0472 0.883633C39.7561 0.844961 39.4817 1.03023 39.4056 1.31383L37.8599 7.08227C37.7432 7.51797 38.1419 7.91652 38.5775 7.7998L44.346 6.25434Z" fill="#FE9901"/>
<path d="M40.4222 7.0825L41.9214 1.48762C41.3311 1.1711 40.6954 0.96977 40.0472 0.883755C39.7561 0.845083 39.4817 1.03036 39.4056 1.31407L37.8599 7.0825C37.7432 7.51821 38.1419 7.91676 38.5775 7.80004L40.4069 7.30985C40.3975 7.23696 40.4013 7.16043 40.4222 7.0825Z" fill="#FB8801"/>
<path d="M34.2457 18.7128C33.9025 19.0561 33.9025 19.6126 34.2457 19.9557C34.4173 20.1273 34.6423 20.2132 34.8672 20.2132C35.092 20.2132 35.317 20.1274 35.4886 19.9557L36.433 19.0113C36.7763 18.6681 36.7763 18.1115 36.433 17.7684C36.0898 17.4252 35.5333 17.4252 35.1901 17.7684L34.2457 18.7128Z" fill="black"/>
<path d="M33.2407 16.0188H34.5762C35.0616 16.0188 35.4551 15.6253 35.4551 15.1399C35.4551 14.6545 35.0616 14.261 34.5762 14.261H33.2407C32.7553 14.261 32.3618 14.6545 32.3618 15.1399C32.3618 15.6253 32.7553 16.0188 33.2407 16.0188Z" fill="black"/>
<path d="M13.104 14.0551C14.9033 15.6152 17.1446 16.3872 19.3825 16.3872C21.8537 16.3871 24.3209 15.4455 26.1825 13.5839C29.7299 10.0365 29.9369 4.29185 26.6537 0.505521C26.3882 0.19931 26.0036 0.0154432 25.5983 0.00102917C25.1923 -0.0143224 24.7964 0.142709 24.5099 0.429232L21.8783 3.06079C21.5351 3.40404 21.5351 3.96044 21.8783 4.30369C22.2216 4.64704 22.7781 4.64693 23.1212 4.30369L25.5265 1.89853C27.9966 4.98958 27.7631 9.51712 24.9394 12.3409C22.1155 15.1645 17.588 15.3979 14.4969 12.928L20.1914 7.23337C20.5347 6.89013 20.5347 6.33361 20.1914 5.99048C19.8482 5.64724 19.2917 5.64724 18.9485 5.99048L13.0276 11.9114C12.7411 12.1979 12.5851 12.5946 12.5996 12.9997C12.614 13.4048 12.7978 13.7894 13.104 14.0551Z" fill="black"/>
<path d="M21.6329 9.20274C21.2897 9.54599 21.2897 10.1025 21.6329 10.4456L22.4753 11.288C22.6468 11.4595 22.8718 11.5454 23.0967 11.5454C23.3216 11.5454 23.5466 11.4597 23.7182 11.288C24.0614 10.9447 24.0614 10.3882 23.7182 10.0451L22.8758 9.20274C22.5326 8.8595 21.976 8.8595 21.6329 9.20274Z" fill="black"/>
<path d="M19.3555 10.0472C18.8701 10.0472 18.4766 10.4408 18.4766 10.9261V12.1174C18.4766 12.6027 18.8701 12.9963 19.3555 12.9963C19.8409 12.9963 20.2344 12.6027 20.2344 12.1174V10.9261C20.2344 10.4408 19.8409 10.0472 19.3555 10.0472Z" fill="black"/>
<path d="M23.5249 7.8739H24.7162C25.2016 7.8739 25.5951 7.48039 25.5951 6.995C25.5951 6.5096 25.2016 6.11609 24.7162 6.11609H23.5249C23.0395 6.11609 22.646 6.5096 22.646 6.995C22.646 7.48039 23.0395 7.8739 23.5249 7.8739Z" fill="black"/>
<path d="M51.9121 36.326H50.1315C50.0978 36.1937 50.0601 36.0611 50.0145 35.9279C52.9184 35.2541 54.8585 33.4927 54.8585 31.4114C54.8585 30.0199 53.9863 28.7472 52.4697 27.8544C55.0964 24.9959 55.4501 20.9759 53.2132 18.7392C52.7797 18.3057 52.2788 17.9707 51.7328 17.7295C51.6954 16.3225 51.3049 14.9462 50.5964 13.7356C50.3513 13.3167 49.8128 13.1758 49.394 13.4211C48.975 13.6663 48.8343 14.2046 49.0794 14.6236C49.5558 15.4375 49.8502 16.3472 49.945 17.2862C49.5328 17.2527 49.1105 17.2604 48.6836 17.309C48.3648 14.6635 46.1077 12.6062 43.3777 12.6062C41.8656 12.6062 40.4997 13.2386 39.5265 14.2513L38.6399 13.3646C39.8405 12.1248 41.5197 11.3511 43.3777 11.3511C44.4531 11.3511 45.5201 11.6152 46.4632 12.115C46.8921 12.3423 47.424 12.1789 47.6514 11.75C47.8787 11.3211 47.7152 10.7892 47.2863 10.5618C46.0906 9.92821 44.739 9.59329 43.3777 9.59329C41.0349 9.59329 38.9159 10.5636 37.3971 12.122L33.3424 8.06715C33.0579 7.78262 32.6657 7.62536 32.2616 7.63942C31.8572 7.65219 31.4714 7.83407 31.2033 8.1384C28.7592 10.9134 28.019 14.6434 28.9354 18.0006C27.9342 18.3095 27.0376 19.0879 26.3599 20.2388C25.0465 19.0276 23.4522 18.2559 21.8329 18.0546C20.6494 17.9073 19.5443 18.0745 18.5992 18.526C17.203 17.4777 15.4716 16.8532 13.5952 16.8532C8.98607 16.8532 5.23631 20.6029 5.23631 25.212C5.23631 28.1421 6.75295 30.7228 9.04138 32.2154C8.82013 32.6366 8.66873 33.0907 8.60334 33.5704C8.47174 34.5359 8.70013 35.484 9.19947 36.326H7.19252C6.63177 36.326 6.08873 36.5591 5.70248 36.9656C5.31353 37.3749 5.11513 37.91 5.14384 38.472C5.38302 43.152 6.95299 47.6367 9.68392 51.4413C12.3591 55.1682 16.0062 58.0602 20.231 59.8046C20.5451 59.9342 20.8807 60 21.229 60H37.8756C38.2238 60 38.5595 59.9342 38.8736 59.8046C43.0984 58.0603 46.7455 55.1683 49.4207 51.4413C52.1516 47.6367 53.7216 43.1519 53.9608 38.472C53.9895 37.91 53.7911 37.3749 53.4021 36.9656C53.0159 36.5591 52.4728 36.326 51.9121 36.326ZM43.3778 14.3641C45.2792 14.3641 46.8389 15.8509 46.9577 17.7227C46.0855 18.0429 45.2323 18.5297 44.4515 19.1764L40.769 15.4939C41.4236 14.7992 42.3504 14.3641 43.3778 14.3641ZM43.0294 21.3406C43.1412 21.6347 43.4016 21.8464 43.7122 21.8961C44.0227 21.9454 44.3363 21.8256 44.5342 21.5811C44.7032 21.3723 44.8799 21.1753 45.0593 20.9957C47.2443 18.8109 50.3447 18.3563 51.9704 19.9821C53.5963 21.6081 53.1416 24.7082 50.9567 26.8932C50.7803 27.0696 50.5863 27.2438 50.3803 27.4111C50.1362 27.6091 50.0166 27.9225 50.0664 28.2328C50.1162 28.5431 50.3278 28.8031 50.6216 28.9149C52.1508 29.4968 53.1008 30.4534 53.1008 31.4113C53.1008 32.7978 51.1821 34.0772 48.6377 34.3871C48.345 34.4227 48.0897 34.6029 47.9578 34.8666C47.826 35.1304 47.8352 35.4427 47.9824 35.6983C48.105 35.9111 48.2056 36.1209 48.286 36.326H47.9454L42.4075 30.7881L47.3953 25.8002C47.7386 25.457 47.7386 24.9004 47.3953 24.5573C47.0521 24.2141 46.4956 24.2141 46.1524 24.5573L41.1646 29.5452L37.1274 25.5079C36.834 25.2146 36.4294 25.0552 36.013 25.0685C35.5972 25.0827 35.202 25.2706 34.9283 25.5841C34.1577 26.4671 33.561 27.4473 33.1334 28.4805C32.8218 27.61 32.6628 26.7451 32.6761 25.9498C32.687 25.3009 32.8323 24.1388 33.6831 23.6477C33.928 23.5063 34.217 23.4364 34.5365 23.4364C35.0478 23.4364 35.637 23.6155 36.2482 23.9666C36.5037 24.1133 36.8155 24.1223 37.0788 23.9906C37.3423 23.8589 37.5223 23.6041 37.5583 23.3118C37.8706 20.7741 39.1493 18.8606 40.5326 18.8606C41.4908 18.8604 42.4476 19.8107 43.0294 21.3406ZM45.2729 36.1395C45.1703 36.2066 45.0653 36.2687 44.9583 36.326H40.92C40.5598 36.1331 40.2213 35.8857 39.9179 35.5823C38.4654 34.1298 38.2798 31.8829 39.3607 30.2273L45.2729 36.1395ZM27.793 31.7846C25.1187 31.7846 22.8968 33.7586 22.5076 36.326H21.2428C21.6411 33.0645 24.4258 30.5295 27.793 30.5295C31.1603 30.5295 33.9449 33.0645 34.3432 36.326H33.0784C32.6892 33.7585 30.4674 31.7846 27.793 31.7846ZM31.2892 36.326H24.297C24.6633 34.7338 26.0912 33.5424 27.793 33.5424C29.4948 33.5424 30.9229 34.7338 31.2892 36.326ZM34.1263 31.6845C34.2912 29.9919 34.9375 28.336 36.0788 26.9452L38.0993 28.9658C36.475 31.1488 36.5185 34.1887 38.2293 36.326H36.1124C35.9431 34.562 35.2225 32.9574 34.1263 31.6845ZM32.3235 9.53411L39.9448 17.1554C38.1278 17.4828 36.6299 19.3164 36.0186 21.9359C35.6589 21.8134 35.3024 21.7336 34.9518 21.6976C34.6766 21.6695 34.4069 21.671 34.1449 21.6986C33.4592 19.7229 32.2244 18.3429 30.7551 17.9597C29.8334 15.1423 30.343 11.9443 32.3235 9.53411ZM18.4788 20.7301C19.2366 19.9723 20.3508 19.6416 21.6161 19.7989C22.963 19.9664 24.3033 20.6571 25.3899 21.7438C25.5697 21.9236 25.7463 22.1205 25.9151 22.329C26.1129 22.5736 26.4266 22.6933 26.737 22.6441C27.0476 22.5945 27.3081 22.3827 27.4199 22.0886C28.0017 20.5588 28.9585 19.6084 29.9167 19.6084C30.9612 19.6084 31.9454 20.6998 32.4995 22.3268C31.5046 23.0566 30.9455 24.3156 30.9184 25.9202C30.8979 27.1422 31.192 28.4756 31.757 29.7732C30.5767 29.1348 29.2266 28.7716 27.793 28.7716C27.7833 28.7716 27.7737 28.7723 27.764 28.7723L24.2967 25.3051C23.9535 24.9618 23.397 24.9618 23.0538 25.3051C22.7106 25.6483 22.7106 26.2048 23.0538 26.548L25.5776 29.0717C22.8354 29.8265 20.6522 31.9446 19.8099 34.6497C18.3257 34.0828 17.3483 33.1484 17.3483 32.159C17.3483 31.2011 18.2983 30.2445 19.8276 29.6627C20.1212 29.5509 20.333 29.2909 20.3828 28.9806C20.4326 28.6702 20.3129 28.357 20.0688 28.1588C19.8626 27.9915 19.6687 27.8172 19.4925 27.641C18.4058 26.5543 17.7151 25.214 17.5476 23.8671C17.3903 22.602 17.721 21.4879 18.4788 20.7301ZM11.6035 28.1921C10.6423 27.5478 10.007 26.4536 10.007 25.212C10.007 23.2336 11.6167 21.6239 13.5952 21.6239C14.432 21.6239 15.2013 21.9133 15.8121 22.3954C15.7806 22.6155 15.7607 22.8402 15.754 23.0694C14.8522 23.0899 13.9933 23.3611 13.2736 23.9081C12.0194 24.8614 11.4413 26.4669 11.6035 28.1921ZM13.349 31.2692C13.6263 31.2192 13.8629 31.0393 13.9852 30.7852C14.1073 30.5313 14.1003 30.234 13.9662 29.9861C12.9898 28.1807 13.1459 26.2132 14.3372 25.3077C14.7914 24.9623 15.3443 24.8047 15.9341 24.8135C16.2477 26.1739 16.9548 27.4889 17.9792 28.6025C16.4626 29.4952 15.5905 30.768 15.5905 32.1594C15.5905 33.9466 17.0221 35.4968 19.2651 36.3261H11.4392C10.6511 35.6291 10.2198 34.7267 10.345 33.808C10.5145 32.5638 11.6937 31.5673 13.349 31.2692ZM6.99412 25.212C6.99412 21.5722 9.95533 18.611 13.5952 18.611C14.8846 18.611 16.0881 18.9836 17.1056 19.6256C16.8176 19.9366 16.5733 20.2794 16.3753 20.6497C15.5647 20.1534 14.6133 19.8661 13.5952 19.8661C10.6474 19.8661 8.2492 22.2642 8.2492 25.212C8.2492 27.3645 9.52841 29.2232 11.3663 30.0698C10.9169 30.283 10.5092 30.5423 10.154 30.8425C8.2601 29.6811 6.99412 27.5918 6.99412 25.212ZM51.7606 41.8371H43.4765C42.9911 41.8371 42.5976 42.2306 42.5976 42.716C42.5976 43.2014 42.9911 43.5949 43.4765 43.5949H51.3218C50.6092 46.0269 49.4889 48.3316 47.9926 50.4161C45.5091 53.8761 42.1238 56.5607 38.2027 58.1797C38.1025 58.2211 37.9924 58.242 37.8756 58.242H21.229C21.1122 58.242 21.0021 58.2211 20.9019 58.1797C16.9808 56.5607 13.5955 53.8761 11.112 50.416C9.61572 48.3315 8.49541 46.0268 7.78279 43.5948H39.2577C39.7431 43.5948 40.1366 43.2013 40.1366 42.7159C40.1366 42.2305 39.7431 41.837 39.2577 41.837H7.34404C7.10884 40.7042 6.95908 39.5498 6.89943 38.3822C6.89451 38.2845 6.93869 38.2163 6.97677 38.1763C7.0097 38.1417 7.08142 38.0837 7.19252 38.0837H51.9121C52.0232 38.0837 52.095 38.1417 52.1278 38.1763C52.1659 38.2163 52.2102 38.2845 52.2052 38.3822C52.1455 39.5499 51.9958 40.7043 51.7606 41.8371Z" fill="black"/>
<path d="M38.4194 8.70019C38.5473 8.70019 38.6768 8.68332 38.8052 8.64898L44.5738 7.1034H44.5739C45.2824 6.91344 45.744 6.22297 45.6478 5.49734C45.462 4.09648 44.8347 2.82699 43.8339 1.82621C42.8332 0.825428 41.5638 0.19824 40.1629 0.0124979C39.4379 -0.0830099 38.747 0.377889 38.5568 1.08664L37.0112 6.85508C36.8742 7.3666 37.0159 7.89547 37.3903 8.27C37.6708 8.55043 38.038 8.70019 38.4194 8.70019ZM40.1866 1.79586C41.1001 1.96812 41.9271 2.40523 42.5911 3.0691C43.255 3.73308 43.692 4.55996 43.8643 5.47355L38.8405 6.81968L40.1866 1.79586Z" fill="black"/>
</svg>
