<svg width="60" height="60" viewBox="0 0 60 60" fill="none" xmlns="http://www.w3.org/2000/svg">
<g clip-path="url(#clip0_62_30)">
<path d="M29.5066 16.6781L31.8748 5.625H40.3123V1.875H29.0623L26.4523 12.8372L24.9316 18.6291L29.5066 16.6781Z" fill="#A5A5A5"/>
<path d="M31.875 25.3125L28.125 58.125H7.5L3.75 25.3125H31.875Z" fill="#7DFF40"/>
<path d="M22.725 28.6069L29.8566 25.3125H3.75L7.5 58.125H21.6675L15.75 53.655C15.1149 53.1755 14.6089 52.5457 14.2774 51.8223C13.9459 51.0988 13.7992 50.3044 13.8506 49.5103C13.902 48.7162 14.1498 47.9473 14.5719 47.2726C14.9939 46.5979 15.5769 46.0387 16.2684 45.645C17.6886 44.8371 18.7707 43.5451 19.3168 42.0052C19.863 40.4653 19.8368 38.7803 19.2431 37.2581C18.6129 35.6439 18.6223 33.85 19.2693 32.2423C19.9163 30.6347 21.1522 29.3345 22.725 28.6069Z" fill="#138600"/>
<path d="M6.6377 17.7572C6.87499 16.2067 7.65977 14.7925 8.84987 13.7708C10.04 12.7491 11.5567 12.1874 13.1252 12.1875H17.5849C18.846 12.1876 20.0947 11.9392 21.2598 11.4567C22.4249 10.9741 23.4835 10.2667 24.3752 9.375L27.1877 14.0625L24.7005 17.7572H6.6377Z" fill="#138600"/>
<path d="M1.875 21.5625H33.75V25.3125H1.875V21.5625Z" fill="#CECECE"/>
<path d="M4.6875 21.5625C4.6875 20.3193 5.18136 19.127 6.06044 18.2479C6.93951 17.3689 8.1318 16.875 9.375 16.875H13.485C18.1958 16.8748 22.8575 15.918 27.1875 14.0625L28.2863 15.1613C29.1268 16.0019 29.7936 16.9999 30.2485 18.0982C30.7034 19.1965 30.9375 20.3737 30.9375 21.5625H4.6875Z" fill="#7DFF40"/>
<path d="M7.50006 58.125H28.1251L28.7682 52.5H6.85693L7.50006 58.125Z" fill="#CECECE"/>
<path d="M15.0368 56.25H28.3399L28.7683 52.5H9.25146C9.75153 53.6163 10.5637 54.5643 11.5902 55.2296C12.6166 55.895 13.8136 56.2493 15.0368 56.25Z" fill="#D8D8D8"/>
<path d="M8.4377 23.4375H33.7502V21.5625H5.20801C5.53431 22.1311 6.00459 22.6037 6.57154 22.9329C7.1385 23.262 7.78213 23.4361 8.4377 23.4375Z" fill="#D8D8D8"/>
<path d="M8.88002 26.9868C8.70015 26.987 8.52232 27.025 8.35808 27.0983C8.19385 27.1717 8.04688 27.2788 7.92673 27.4126C7.80658 27.5465 7.71593 27.7041 7.66066 27.8753C7.6054 28.0465 7.58676 28.2273 7.60596 28.4062L9.11627 42.2812C9.15306 42.6224 9.31475 42.9379 9.5702 43.1671C9.82566 43.3962 10.1568 43.5228 10.5 43.5224C10.6972 43.5224 10.892 43.4804 11.0717 43.3993C11.2514 43.3182 11.4118 43.1998 11.5423 43.0521C11.6727 42.9043 11.7703 42.7305 11.8286 42.5422C11.8868 42.3538 11.9043 42.1553 11.88 41.9596L10.1522 28.1099C10.1136 27.7998 9.96294 27.5145 9.72864 27.3076C9.49435 27.1008 9.19255 26.9867 8.88002 26.9868Z" fill="white"/>
<path d="M10.0145 47.7234L10.2536 49.0547C10.3087 49.3612 10.4719 49.6379 10.7136 49.8343C10.9553 50.0308 11.2594 50.134 11.5708 50.1253C11.7608 50.12 11.9473 50.0732 12.1172 49.9881C12.2872 49.903 12.4364 49.7817 12.5545 49.6327C12.6725 49.4838 12.7565 49.3108 12.8005 49.1259C12.8445 48.941 12.8475 48.7487 12.8092 48.5625L12.5326 47.2388C12.472 46.9506 12.3142 46.692 12.0857 46.5063C11.8572 46.3206 11.5718 46.2191 11.2773 46.2188C11.0901 46.2188 10.9052 46.2598 10.7355 46.3389C10.5659 46.4181 10.4156 46.5334 10.2952 46.6768C10.1749 46.8202 10.0874 46.9882 10.0389 47.169C9.9904 47.3498 9.98208 47.5391 10.0145 47.7234Z" fill="white"/>
<path d="M40.3125 58.125C50.1501 58.125 58.125 50.1501 58.125 40.3125C58.125 30.4749 50.1501 22.5 40.3125 22.5C30.4749 22.5 22.5 30.4749 22.5 40.3125C22.5 50.1501 30.4749 58.125 40.3125 58.125Z" fill="#EF874D"/>
<path d="M30 42.1875C30.0012 45.4925 30.9228 48.732 32.6614 51.5427C34.4001 54.3535 36.8871 56.6246 39.8438 58.1016C40.0012 58.1016 40.1541 58.125 40.3125 58.125C44.324 58.1274 48.2187 56.7748 51.3653 54.2866C54.5119 51.7984 56.7258 48.3203 57.6483 44.4163C58.5707 40.5123 58.1475 36.4112 56.4473 32.7778C54.7471 29.1444 51.8696 26.1917 48.2812 24.3984C48.1238 24.3984 47.9709 24.375 47.8125 24.375C43.0883 24.375 38.5577 26.2517 35.2172 29.5922C31.8767 32.9327 30 37.4633 30 42.1875Z" fill="#ED9366"/>
<path d="M41.25 25.3125C41.796 23.6745 42.8436 22.2498 44.2444 21.2402C45.6451 20.2307 47.328 19.6874 49.0547 19.6875H51.5625C51.5625 21.1793 50.9699 22.6101 49.915 23.665C48.8601 24.7199 47.4293 25.3125 45.9375 25.3125H41.25Z" fill="#346664"/>
<path d="M16.875 40.3125C16.875 45.0367 18.7517 49.5673 22.0922 52.9078C25.4327 56.2483 29.9633 58.125 34.6875 58.125C39.4117 58.125 43.9423 56.2483 47.2828 52.9078C50.6233 49.5673 52.5 45.0367 52.5 40.3125H37.5C37.5 41.0584 37.2037 41.7738 36.6762 42.3012C36.1488 42.8287 35.4334 43.125 34.6875 43.125C33.9416 43.125 33.2262 42.8287 32.6988 42.3012C32.1713 41.7738 31.875 41.0584 31.875 40.3125H16.875Z" fill="#ED753A"/>
<path d="M34.6875 54.375C38.4171 54.375 41.994 52.8934 44.6312 50.2562C47.2684 47.619 48.75 44.0421 48.75 40.3125H37.5C37.5 41.0584 37.2037 41.7738 36.6762 42.3012C36.1488 42.8287 35.4334 43.125 34.6875 43.125C33.9416 43.125 33.2262 42.8287 32.6988 42.3012C32.1713 41.7738 31.875 41.0584 31.875 40.3125H20.625C20.625 44.0421 22.1066 47.619 24.7438 50.2562C27.381 52.8934 30.9579 54.375 34.6875 54.375Z" fill="#DB4954"/>
<path d="M32.1561 41.5181L24.1123 49.5618C24.5246 50.0323 24.9675 50.4751 25.4379 50.8874L33.4817 42.8437C32.9012 42.5664 32.4333 42.0985 32.1561 41.5181Z" fill="#4ECD00"/>
<path d="M35.625 54.328V42.9524C35.0212 43.1824 34.3538 43.1824 33.75 42.9524V54.328C34.0612 54.3477 34.3706 54.3749 34.6875 54.3749C35.0044 54.3749 35.3138 54.3477 35.625 54.328Z" fill="#4ECD00"/>
<path d="M35.8931 42.8437L43.9368 50.8874C44.4073 50.4751 44.8501 50.0323 45.2624 49.5618L37.2187 41.5181C36.9414 42.0985 36.4735 42.5664 35.8931 42.8437Z" fill="#4ECD00"/>
<path d="M50.3841 24.4997C51.0505 23.8876 51.5827 23.1439 51.9469 22.3156C52.3111 21.4873 52.4995 20.5924 52.5 19.6875C52.5 19.4389 52.4012 19.2004 52.2254 19.0246C52.0496 18.8488 51.8111 18.75 51.5625 18.75H49.0547C47.7941 18.7497 46.547 19.0099 45.3917 19.5144C44.2364 20.0189 43.1979 20.7567 42.3413 21.6816C41.6676 21.6057 40.9904 21.566 40.3125 21.5625C38.4044 21.5618 36.5074 21.8533 34.6875 22.4269V21.5625C34.6875 21.3139 34.5887 21.0754 34.4129 20.8996C34.2371 20.7238 33.9986 20.625 33.75 20.625H31.8291C31.6944 19.1749 31.2404 17.7726 30.4997 16.5188L32.6334 6.5625H40.3125C40.5611 6.5625 40.7996 6.46373 40.9754 6.28791C41.1512 6.1121 41.25 5.87364 41.25 5.625V1.875C41.25 1.62636 41.1512 1.3879 40.9754 1.21209C40.7996 1.03627 40.5611 0.9375 40.3125 0.9375H29.0625C28.8515 0.93749 28.6467 1.00865 28.4811 1.13948C28.3156 1.27031 28.1991 1.45315 28.1503 1.65844L26.0728 10.3828L25.1784 8.89219C25.1051 8.77016 25.0049 8.66644 24.8855 8.58891C24.766 8.51138 24.6305 8.46207 24.4892 8.44472C24.3479 8.42737 24.2045 8.44244 24.0698 8.48878C23.9352 8.53513 23.8129 8.61153 23.7122 8.71219C22.9094 9.51937 21.9545 10.1593 20.9027 10.5949C19.8509 11.0305 18.7231 11.2532 17.5847 11.25H13.125C11.4022 11.2597 9.73468 11.8588 8.39957 12.9476C7.06447 14.0364 6.14226 15.5494 5.78625 17.235C4.75101 18.0951 4.05848 19.2979 3.83438 20.625H1.875C1.62636 20.625 1.3879 20.7238 1.21209 20.8996C1.03627 21.0754 0.9375 21.3139 0.9375 21.5625V25.3125C0.9375 25.5611 1.03627 25.7996 1.21209 25.9754C1.3879 26.1512 1.62636 26.25 1.875 26.25H2.91375L6.57 58.2309C6.59599 58.4595 6.70512 58.6705 6.8766 58.8239C7.04809 58.9772 7.26996 59.0621 7.5 59.0625H28.125C28.3554 59.0626 28.5777 58.9779 28.7496 58.8245C28.9215 58.6711 29.0308 58.4598 29.0569 58.2309V58.1972C31.7575 59.0635 34.6238 59.2834 37.425 58.8394C40.0992 59.2562 42.832 59.0891 45.4355 58.3496C48.039 57.6101 50.4516 56.3158 52.5074 54.5555C54.5633 52.7952 56.2137 50.6107 57.3452 48.1521C58.4767 45.6934 59.0626 43.019 59.0625 40.3125C59.0648 37.1592 58.2705 34.0563 56.7533 31.292C55.2361 28.5276 53.0453 26.1912 50.3841 24.4997ZM49.0547 20.625H50.5313C50.3138 21.6831 49.7382 22.6339 48.9013 23.317C48.0645 24.0002 47.0177 24.3738 45.9375 24.375H42.6806C43.3114 23.2377 44.2352 22.29 45.3562 21.6306C46.4771 20.9711 47.7542 20.6239 49.0547 20.625ZM29.8031 2.8125H39.375V4.6875H31.875C31.6604 4.68748 31.4522 4.76111 31.2854 4.89607C31.1185 5.03104 31.003 5.21918 30.9581 5.42906L29.0016 14.5566C28.9837 14.5378 28.9678 14.5162 28.9481 14.4975L27.9319 13.4813L27.4528 12.6825L29.8031 2.8125ZM13.125 13.125H17.5847C19.9725 13.1318 22.2908 12.3216 24.1547 10.8291L25.8169 13.6003C21.8894 15.1465 17.7059 15.9394 13.485 15.9375H9.375C8.97724 15.9383 8.58067 15.981 8.19187 16.065C8.67733 15.1796 9.39071 14.4402 10.2581 13.9232C11.1255 13.4063 12.1153 13.1307 13.125 13.125ZM9.375 17.8125H13.485C18.1089 17.8181 22.6894 16.9203 26.9691 15.1697L27.6253 15.8259C28.9197 17.1163 29.7364 18.8088 29.9409 20.625H5.75813C5.96536 19.8224 6.4327 19.111 7.08709 18.6022C7.74149 18.0933 8.54605 17.8156 9.375 17.8125ZM2.8125 22.5H32.8125V23.1394C32.0083 23.4956 31.2304 23.9086 30.4847 24.375H2.8125V22.5ZM4.80094 26.25H27.9572C26.0745 27.9011 24.5428 29.9138 23.4533 32.1685C22.3638 34.4232 21.7387 36.8739 21.615 39.375H16.875C16.6264 39.375 16.3879 39.4738 16.2121 39.6496C16.0363 39.8254 15.9375 40.0639 15.9375 40.3125C15.9388 44.375 17.2682 48.3256 19.7231 51.5625H7.69313L4.80094 26.25ZM44.595 48.8944L37.9097 42.2091C38.0906 41.9102 38.2285 41.5873 38.3194 41.25H47.7647C47.5655 44.0745 46.453 46.7576 44.595 48.8944ZM36.5859 43.5366L43.2694 50.22C41.1326 52.078 38.4495 53.1905 35.625 53.3897V43.9303C35.9621 43.8445 36.2856 43.712 36.5859 43.5366ZM33.75 53.3897C30.9255 53.1905 28.2424 52.078 26.1056 50.22L32.7891 43.5366C33.0894 43.712 33.4129 43.8445 33.75 43.9303V53.3897ZM24.78 48.8944C22.922 46.7576 21.8095 44.0745 21.6103 41.25H31.0556C31.1465 41.5873 31.2844 41.9102 31.4653 42.2091L24.78 48.8944ZM8.33625 57.1875L7.90781 53.4375H21.3197C22.841 54.9801 24.617 56.2488 26.5697 57.1875H8.33625ZM17.8378 41.25H19.7353C19.9652 45.0599 21.6407 48.6384 24.4197 51.2548C27.1987 53.8712 30.8716 55.3282 34.6884 55.3282C38.5053 55.3282 42.1782 53.8712 44.9572 51.2548C47.7362 48.6384 49.4117 45.0599 49.6416 41.25H51.5391C51.3028 45.5591 49.4245 49.6139 46.2905 52.5808C43.1565 55.5477 39.005 57.2011 34.6894 57.2011C30.3738 57.2011 26.2222 55.5477 23.0882 52.5808C19.9542 49.6139 18.076 45.5591 17.8397 41.25H17.8378ZM43.4316 56.8866C46.4487 55.2948 48.9747 52.9104 50.7378 49.99C52.5009 47.0697 53.4343 43.7238 53.4375 40.3125C53.4375 40.0639 53.3387 39.8254 53.1629 39.6496C52.9871 39.4738 52.7486 39.375 52.5 39.375H37.5C37.2514 39.375 37.0129 39.4738 36.8371 39.6496C36.6613 39.8254 36.5625 40.0639 36.5625 40.3125C36.5625 40.8098 36.365 41.2867 36.0133 41.6383C35.6617 41.99 35.1848 42.1875 34.6875 42.1875C34.1902 42.1875 33.7133 41.99 33.3617 41.6383C33.01 41.2867 32.8125 40.8098 32.8125 40.3125C32.8125 40.0639 32.7137 39.8254 32.5379 39.6496C32.3621 39.4738 32.1236 39.375 31.875 39.375H23.4853C23.7261 35.0727 25.603 31.0252 28.7316 28.0621C31.8601 25.0989 36.0034 23.4444 40.3125 23.4375C40.5581 23.4375 40.8037 23.4516 41.0503 23.4619C40.7728 23.9576 40.5418 24.4779 40.3603 25.0163C40.3134 25.1572 40.3006 25.3073 40.323 25.4541C40.3455 25.601 40.4025 25.7404 40.4894 25.8608C40.5763 25.9813 40.6905 26.0795 40.8228 26.1471C40.955 26.2148 41.1015 26.25 41.25 26.25H45.9375C46.8762 26.2491 47.8036 26.0454 48.6563 25.6528C51.6601 27.3599 54.067 29.9484 55.5514 33.0683C57.0358 36.1881 57.526 39.6886 56.9557 43.0962C56.3853 46.5038 54.782 49.6539 52.3627 52.1204C49.9433 54.5869 46.8247 56.2506 43.4288 56.8866H43.4316Z" fill="black"/>
<path d="M43.0311 28.5328C42.3321 28.8751 41.5641 29.0531 40.7858 29.0531C40.0074 29.0531 39.2394 28.8751 38.5405 28.5328L37.9236 28.2234L37.0854 29.9015L37.7023 30.21C38.6598 30.6884 39.7154 30.9375 40.7858 30.9375C41.8561 30.9375 42.9117 30.6884 43.8692 30.21L44.4861 29.9015L43.6479 28.2234L43.0311 28.5328Z" fill="black"/>
</g>
<defs>
<clipPath id="clip0_62_30">
<rect width="60" height="60" fill="white"/>
</clipPath>
</defs>
</svg>
