<svg width="61" height="61" viewBox="0 0 61 61" fill="none" xmlns="http://www.w3.org/2000/svg">
<path d="M58.4583 14.9875L52.9012 10.0181V8.25924C52.8971 5.09944 50.3331 2.53947 47.1733 2.54151H13.8266C10.6668 2.53947 8.1028 5.09944 8.09873 8.25924V10.0181L2.53553 14.9916C1.2464 16.1445 0.510334 17.7915 0.508301 19.5198V52.7404C0.512367 55.8962 3.0703 58.4541 6.22603 58.4582H54.7739C57.9296 58.4541 60.4876 55.8962 60.4916 52.7404V19.5198C60.4896 17.7895 59.7495 16.1404 58.4583 14.9875ZM54.7739 55.4082H6.22603C4.7539 55.4061 3.56033 54.2126 3.5583 52.7404V19.5198C3.42003 17.4824 6.4436 15.8151 8.09873 14.1091V25.0566C8.11703 27.0472 11.1325 27.0533 11.1487 25.0566V8.25924C11.1487 6.78304 12.3504 5.58744 13.8266 5.59151H47.1733C48.6475 5.59354 49.841 6.78507 49.8431 8.25924V25.0566C49.839 27.0432 52.891 27.0554 52.8931 25.0566V14.1091C54.5299 15.7948 57.5901 17.5109 57.4396 19.5239V52.7404C57.4376 54.2126 56.246 55.4061 54.7739 55.4082Z" fill="#5DC001"/>
<path d="M52.7367 30.8456C52.3605 30.0892 51.4354 29.7862 50.6851 30.1705L32.8507 39.2432C31.3643 39.9854 29.6157 39.9854 28.1313 39.2432L10.3153 30.1705C8.57065 29.2311 7.10665 31.8988 8.86752 32.8545C8.84312 32.8891 17.7634 37.3461 17.7674 37.3827L8.43645 49.0032C7.27339 50.5486 9.54665 52.3928 10.8134 50.9125L20.5368 38.7959L26.7405 41.9516C29.0972 43.1289 31.8706 43.1289 34.2273 41.9516L40.433 38.7979L50.1788 50.9125C51.4191 52.4579 53.8083 50.5648 52.5557 49.0012L43.2126 37.3848L52.0576 32.8891C52.8099 32.5129 53.1149 31.5979 52.7367 30.8456Z" fill="#5DC001"/>
<path d="M23.8571 14.758H37.1429C39.1335 14.7499 39.1396 11.7161 37.1429 11.708H23.8571C21.8664 11.7161 21.8603 14.7499 23.8571 14.758Z" fill="#5DC001"/>
<path d="M17.216 22.3483H43.7835C45.7701 22.3402 45.7843 19.3065 43.7835 19.2983H17.216C15.2294 19.3065 15.2152 22.3402 17.216 22.3483Z" fill="#5DC001"/>
</svg>
