<?xml version="1.0" encoding="UTF-8"?>
<svg id="Layer_2" data-name="Layer 2" xmlns="http://www.w3.org/2000/svg" viewBox="0 0 183.9 68.02">
  <defs>
    <style>
      .cls-1 {
        letter-spacing: 0em;
      }

      .cls-2, .cls-3 {
        fill: #fff;
      }

      .cls-4 {
        fill: #105e33;
      }

      .cls-3 {
        font-family: BogartTrial-ExtraboldItalic, 'Bogart Trial';
        font-size: 17.23px;
        font-style: italic;
        font-weight: 700;
      }

      .cls-5 {
        letter-spacing: -.03em;
      }

      .cls-6 {
        letter-spacing: 0em;
      }

      .cls-7 {
        letter-spacing: 0em;
      }
    </style>
  </defs>
  <g id="Layer_1-2" data-name="Layer 1">
    <g>
      <g>
        <path class="cls-4" d="M60.13,64.52c-.94,0-1.69-.16-2.35-.5-1.25-.64-2.03-1.93-2.03-3.35,0-.91.28-1.78.8-2.5.25-.35.56-.67.91-.96.02-.09.05-.19.07-.32l.99-4.61s-.03-.05-.05-.08c-.39-.66-.57-1.45-.51-2.27v-.1s.02-.1.02-.1c.32-2.26,2.12-3.78,4.5-3.78.7,0,1.55-.02,2.53-.07,1.02-.05,1.8-.07,2.38-.07,2.24,0,4.02.42,5.42,1.28,1.84,1.13,2.85,2.93,2.85,5.05,0,1.23-.32,2.46-.96,3.65-.69,1.29-1.82,2.36-3.35,3.18-.8.42-1.68.73-2.68.92,0,.11.01.21.01.32,0,1.19-.46,2.29-1.3,3.1-1.11,1.08-2.6,1.22-3.63,1.24h-.03s-3.6-.02-3.6-.02Z"/>
        <path class="cls-4" d="M59.27,61.13c-.18-.09-.27-.25-.27-.47,0-.23.06-.43.18-.59.12-.17.28-.32.49-.47.29-.21.5-.44.63-.69.13-.25.27-.7.41-1.34l.98-4.57.09-.4c.1-.49.16-.84.16-1.03,0-.34-.13-.6-.38-.76-.13-.08-.22-.17-.28-.27-.06-.1-.08-.22-.07-.37.09-.65.52-.98,1.28-.98s1.64-.02,2.67-.07c.96-.05,1.71-.07,2.24-.07,1.61,0,2.85.27,3.71.8.87.53,1.3,1.3,1.3,2.28,0,.69-.19,1.39-.58,2.11-.38.72-1.06,1.33-2.02,1.84-.96.51-2.23.77-3.82.77h-.71c-.23,0-.38.04-.46.12-.07.08-.14.24-.18.48l-.12.55c-.05.2-.07.4-.07.6,0,.2.04.36.12.5.08.14.22.28.41.41.29.17.43.4.43.67,0,.31-.1.57-.31.77-.21.2-.68.31-1.41.32l-3.57-.02c-.4,0-.69-.05-.87-.14ZM66,55.01c.72,0,1.24-.24,1.56-.72.32-.48.47-1.05.47-1.69,0-.49-.12-.88-.36-1.15s-.57-.41-.98-.41h-.21c-.17,0-.3.04-.38.11-.08.07-.15.23-.21.47l-.64,2.93s-.02.11-.02.19c0,.1.04.18.11.22.07.04.21.06.4.06h.24Z"/>
        <path class="cls-4" d="M78.72,64.72c-1.03,0-1.86-.24-2.51-.58-.78.38-1.65.58-2.58.58-2.34,0-3.7-1.03-4.42-1.9-.62-.74-1.37-2.05-1.37-4.02,0-1.44.3-2.87.88-4.25.63-1.48,1.57-2.72,2.79-3.69,1.36-1.08,3.03-1.65,4.82-1.65.86,0,1.71.14,2.53.42,0,0,0,0,.01,0,.01,0,.03,0,.05-.01.05-.02.11-.04.2-.07.29-.11.57-.19.84-.25.33-.07.68-.11,1.03-.11,1.3,0,2.48.63,3.15,1.69.53.84.72,1.85.52,2.84l-.53,2.47c.08.09.16.18.24.28.52.68.79,1.49.79,2.37,0,.78-.2,1.53-.6,2.25-.5.95-1.23,1.78-2.16,2.45-1.08.78-2.36,1.19-3.68,1.19Z"/>
        <path class="cls-4" d="M71.72,60.74c-.41-.49-.61-1.13-.61-1.94,0-1.01.21-2,.62-2.98.41-.98,1.02-1.78,1.82-2.41.8-.63,1.73-.95,2.8-.95.52,0,1.02.09,1.52.26.36.11.73.17,1.12.17.28,0,.6-.06.98-.19.07-.02.17-.06.31-.11.14-.05.26-.09.37-.11.11-.02.23-.03.35-.03.2,0,.33.06.41.19.08.13.1.28.07.45l-1.05,4.91c-.02.09-.03.21-.03.34,0,.23.08.34.24.34s.36-.09.6-.28c.1-.07.2-.1.29-.1.1,0,.19.05.27.15.07.1.11.23.11.39,0,.23-.07.47-.21.71-.26.52-.66.97-1.2,1.35-.53.38-1.13.58-1.78.58-.62,0-1.1-.18-1.45-.53-.34-.36-.52-.78-.52-1.28,0-.17-.04-.26-.12-.26-.06,0-.13.06-.22.19-.36.54-.75.99-1.18,1.34-.43.36-.96.53-1.59.53-.87,0-1.51-.24-1.92-.73ZM76.4,58.18c.25-.31.43-.71.56-1.21.29-1.08.43-1.82.43-2.21,0-.29-.05-.49-.16-.61s-.25-.18-.43-.18c-.3,0-.58.2-.85.61-.27.41-.49.9-.65,1.46-.16.57-.24,1.07-.24,1.49,0,.74.18,1.1.55,1.1.28,0,.54-.16.78-.47Z"/>
        <path class="cls-4" d="M86.34,64.72c-2.48,0-4.06-.98-4.95-1.8-1.35-1.25-2.06-2.94-2.06-4.91,0-1.52.4-2.99,1.2-4.35.77-1.33,1.83-2.41,3.14-3.22,1.37-.85,2.88-1.28,4.49-1.28,1,0,1.95.17,2.83.51,1.02.4,1.87.99,2.52,1.77.78.94,1.2,2.07,1.2,3.28,0,1.05-.29,2.01-.85,2.82.12.47.17,1.03.08,1.67l-.02.14-.03.14c-.2.84-.62,1.66-1.25,2.45-.64.8-1.5,1.47-2.56,1.99-1.07.52-2.32.78-3.72.78Z"/>
        <path class="cls-4" d="M83.6,60.53c-.68-.63-1.02-1.47-1.02-2.52,0-.94.25-1.85.76-2.71.51-.87,1.19-1.57,2.04-2.09.86-.53,1.78-.79,2.78-.79.6,0,1.15.1,1.65.29.51.2.9.47,1.2.82.29.35.44.75.44,1.2s-.13.82-.38,1.1c-.25.29-.59.43-1.02.43-.29,0-.51-.05-.68-.16-.17-.1-.29-.23-.37-.38-.08-.15-.18-.38-.31-.71-.08-.29-.18-.5-.29-.63-.12-.13-.26-.2-.43-.2-.4,0-.72.28-.96.84-.24.56-.35,1.24-.35,2.04,0,.57.12,1.03.35,1.37.24.34.58.51,1.03.51.26,0,.53-.07.81-.2.28-.13.53-.3.76-.49.23-.17.44-.26.62-.26.17,0,.3.07.4.2.09.13.12.31.09.54-.09.38-.3.78-.64,1.2-.33.42-.81.78-1.44,1.09-.63.3-1.39.46-2.3.46-1.15,0-2.06-.31-2.74-.94Z"/>
        <path class="cls-4" d="M99.16,64.72c-1.14,0-2.16-.29-3.02-.83-.46.22-.98.39-1.56.49-.66.12-1.52.19-2.7.21h-.08c-1.32,0-2.19-.54-2.69-.99-.81-.73-1.25-1.74-1.25-2.85,0-.45.06-.86.18-1.25l.21-.69v-.04c.18-.51.33-1.05.46-1.62l.95-4.37s-.06-.09-.08-.13c-.47-.76-.63-1.7-.45-2.62v-.05s.02-.05.02-.05c.25-1.06.9-1.95,1.84-2.5.32-.19.72-.37,1.27-.59l.04-.02.04-.02c1.85-.67,3.15-.97,4.23-.97.87,0,1.6.17,2.22.53,1.02.58,1.67,1.61,1.8,2.79.01,0,.03,0,.04,0,1.37,0,2.6.45,3.55,1.31,1.03.93,1.6,2.2,1.6,3.56,0,1.13-.36,2.16-1.05,2.97.45.63.69,1.39.69,2.18,0,.48-.08.93-.23,1.35-.43,1.2-1.2,2.24-2.24,2.99-1.09.79-2.36,1.19-3.8,1.19Z"/>
        <path class="cls-4" d="M97.19,60.35c-.37-.75-.61-1.75-.74-3.02-.01-.14-.07-.21-.17-.21-.05,0-.1.03-.16.09l-.29.38c-.13.15-.21.32-.25.5-.04.18-.07.29-.08.33-.12.7-.18,1.21-.21,1.52-.03.38-.14.66-.32.84-.18.18-.51.32-.98.4-.48.09-1.21.14-2.2.16-.23,0-.4-.05-.52-.16-.11-.1-.17-.25-.17-.43,0-.11.01-.21.03-.28l.21-.67c.21-.62.38-1.27.53-1.95l1.19-5.46c.03-.17.05-.33.05-.47,0-.26-.09-.47-.28-.6-.06-.03-.14-.09-.26-.16-.11-.07-.2-.14-.24-.22-.05-.07-.06-.17-.03-.28.05-.2.15-.34.32-.44.17-.1.44-.22.82-.37,1.42-.52,2.46-.78,3.12-.78.29,0,.49.03.61.1s.18.2.18.4c0,.03-.01.12-.03.26l-1.02,4.81c-.01.06-.02.13-.02.21,0,.11.03.17.09.17.07,0,.17-.07.31-.21.79-.86,1.47-1.48,2.03-1.85.56-.37,1.2-.56,1.91-.56.56,0,1.02.16,1.37.47.35.32.53.7.53,1.15,0,.37-.1.66-.29.89-.2.22-.48.34-.84.34-.45,0-.75-.21-.91-.62-.06-.16-.12-.27-.18-.34-.06-.06-.15-.09-.27-.09-.14,0-.31.09-.52.26-.17.15-.26.32-.26.52,0,.08.02.18.05.31.32,1.22.55,2.05.69,2.51.14.45.27.78.4.97.13.2.29.29.48.29.11,0,.21-.02.28-.05s.14-.07.21-.12c.07-.05.12-.08.16-.1.08-.05.16-.07.24-.07.11,0,.21.04.29.13.08.09.12.2.12.34,0,.1-.01.18-.03.24-.21.6-.57,1.09-1.09,1.46-.52.38-1.15.57-1.89.57-.94,0-1.6-.37-1.96-1.12Z"/>
        <path class="cls-4" d="M110.14,64.72c-1.03,0-1.86-.24-2.51-.58-.78.38-1.65.58-2.58.58-2.34,0-3.7-1.03-4.42-1.9-.62-.74-1.37-2.05-1.37-4.02,0-1.44.3-2.87.88-4.25.63-1.48,1.57-2.72,2.79-3.69,1.36-1.08,3.03-1.65,4.82-1.65.86,0,1.71.14,2.53.42,0,0,0,0,.01,0,.01,0,.03,0,.05-.01.05-.02.11-.04.2-.07.29-.11.57-.19.84-.25.33-.07.68-.11,1.03-.11,1.3,0,2.48.63,3.15,1.69.53.84.72,1.85.52,2.84l-.53,2.47c.08.09.16.18.24.28.52.68.79,1.49.79,2.37,0,.78-.2,1.53-.6,2.25-.5.95-1.23,1.78-2.16,2.45-1.08.78-2.36,1.19-3.68,1.19Z"/>
        <path class="cls-4" d="M103.13,60.74c-.41-.49-.61-1.13-.61-1.94,0-1.01.21-2,.62-2.98.41-.98,1.02-1.78,1.82-2.41.8-.63,1.73-.95,2.8-.95.52,0,1.02.09,1.52.26.36.11.73.17,1.12.17.28,0,.6-.06.98-.19.07-.02.17-.06.31-.11.14-.05.26-.09.37-.11.11-.02.23-.03.35-.03.2,0,.33.06.41.19.08.13.1.28.07.45l-1.05,4.91c-.02.09-.03.21-.03.34,0,.23.08.34.24.34s.36-.09.6-.28c.1-.07.2-.1.29-.1.1,0,.19.05.27.15.07.1.11.23.11.39,0,.23-.07.47-.21.71-.26.52-.66.97-1.2,1.35-.53.38-1.13.58-1.78.58-.62,0-1.1-.18-1.45-.53-.34-.36-.52-.78-.52-1.28,0-.17-.04-.26-.12-.26-.06,0-.13.06-.22.19-.36.54-.75.99-1.18,1.34-.43.36-.96.53-1.59.53-.87,0-1.51-.24-1.92-.73ZM107.82,58.18c.25-.31.43-.71.56-1.21.29-1.08.43-1.82.43-2.21,0-.29-.05-.49-.16-.61s-.25-.18-.43-.18c-.3,0-.58.2-.85.61-.27.41-.49.9-.65,1.46-.16.57-.24,1.07-.24,1.49,0,.74.18,1.1.55,1.1.28,0,.54-.16.78-.47Z"/>
        <path class="cls-4" d="M116.98,67.65c-1.79,0-3.23-.28-4.38-.86-.84-.42-1.54-1.05-2-1.82-.45-.75-.69-1.61-.69-2.47,0-1,.3-1.95.87-2.75-.07-.39-.12-.81-.12-1.27,0-1.41.31-2.81.92-4.16.64-1.41,1.56-2.6,2.74-3.52,1.33-1.04,2.94-1.6,4.66-1.6.77,0,1.57.11,2.47.35l.14.04.07.03c.06-.02.11-.03.15-.04.04-.01.1-.03.17-.06.29-.1.55-.17.82-.23.33-.07.66-.1.99-.1,1.03,0,1.97.38,2.67,1.08.7.7,1.08,1.63,1.08,2.63,0,.32-.03.63-.1.91l-1.45,6.86c-.7,3.28-2.46,4.86-3.81,5.62-1.61.9-3.35,1.35-5.2,1.35Z"/>
        <path class="cls-4" d="M114.05,63.88c-.3-.15-.52-.35-.67-.59-.15-.25-.22-.51-.22-.78,0-.37.12-.69.35-.97.24-.28.54-.41.92-.41.62,0,1.13.29,1.52.86.18.26.38.45.58.57.2.11.49.17.87.17.57,0,1.02-.22,1.34-.65.32-.44.57-1.09.76-1.95l.14-.64s.02-.09.02-.16c0-.09-.03-.14-.09-.14-.07,0-.15.06-.24.17-.36.47-.75.86-1.19,1.15-.44.3-.98.45-1.64.45-.88,0-1.54-.22-1.96-.66-.42-.44-.63-1.05-.63-1.82,0-.95.21-1.9.63-2.83.42-.93,1.01-1.7,1.78-2.3.77-.6,1.65-.9,2.65-.9.48,0,1.03.08,1.65.24.16.06.34.1.55.14.21.03.37.05.5.05.24,0,.46-.03.65-.09.2-.06.32-.09.36-.1.08-.02.2-.06.34-.11.15-.05.28-.09.4-.11.11-.02.23-.03.34-.03.16,0,.28.04.37.13.09.09.13.2.13.34,0,.08,0,.14-.02.17l-1.46,6.93c-.36,1.68-1.09,2.83-2.21,3.46-1.12.63-2.32.94-3.61.94s-2.24-.17-2.93-.52ZM119.3,57.87c.21-.26.37-.61.48-1.05l.09-.34c.1-.4.18-.75.24-1.03.06-.29.09-.53.09-.72,0-.28-.05-.47-.15-.58-.1-.11-.24-.16-.42-.16-.3,0-.58.19-.85.57-.27.38-.49.84-.65,1.37-.16.53-.24,1-.24,1.39,0,.64.24.97.71.97.26,0,.5-.13.71-.4Z"/>
        <path class="cls-4" d="M126.89,64.72c-1.65,0-2.97-.48-3.92-1.43-.65-.65-1.44-1.82-1.44-3.68,0-.77.13-1.64.4-2.67l.19-.75s-.04-.06-.06-.09c-.47-.77-.63-1.7-.45-2.62v-.05s.02-.05.02-.05c.18-.78.58-1.46,1.15-1.99-.01-.12-.02-.24-.02-.36,0-.33.03-.62.09-.9.16-.75.59-1.81,1.72-2.76.66-.56,1.46-.99,2.38-1.29.85-.28,1.75-.42,2.66-.42,1.12,0,2.09.3,2.88.9,1.03.78,1.61,1.96,1.61,3.23,0,.32-.03.62-.09.9-.15.72-.48,1.4-.96,1.99,0,.11.01.22.01.33,0,.25-.02.49-.08.82v.08s-.52,2.29-.52,2.29c.1.11.19.22.28.34.48.66.73,1.46.73,2.32,0,.74-.19,1.48-.55,2.18-.52,1.02-1.32,1.88-2.38,2.58-1.12.74-2.36,1.11-3.68,1.11Z"/>
        <path class="cls-4" d="M125.27,60.99c-.32-.32-.48-.78-.48-1.38,0-.48.1-1.1.29-1.86l.48-1.91c.05-.15.07-.3.07-.45,0-.25-.1-.45-.29-.6-.06-.05-.14-.1-.26-.17-.12-.07-.2-.14-.24-.22-.05-.07-.06-.17-.03-.28.05-.2.16-.34.33-.45s.44-.22.81-.34c1.38-.53,2.42-.79,3.12-.79.28,0,.47.03.59.1s.18.19.18.36c0,.06-.01.16-.03.29l-1.03,4.7c-.03.14-.05.25-.05.34,0,.23.09.34.26.34.1,0,.2-.02.28-.07.08-.05.19-.12.33-.22.09-.07.18-.1.26-.1.13,0,.23.05.3.16.07.1.11.24.11.41,0,.22-.06.45-.19.69-.26.52-.69.97-1.28,1.35-.59.38-1.22.58-1.9.58-.76,0-1.3-.16-1.62-.48ZM126.38,51.64c-.24-.17-.35-.38-.35-.63,0-.09,0-.16.02-.21.07-.34.28-.66.63-.96.35-.29.79-.53,1.31-.7.52-.17,1.07-.26,1.65-.26.4,0,.71.08.92.24.21.16.32.37.32.64,0,.09,0,.16-.02.21-.07.34-.27.66-.61.95-.34.29-.76.52-1.26.7-.5.18-1.03.27-1.58.27-.45,0-.79-.08-1.03-.25Z"/>
        <path class="cls-4" d="M138.88,64.72c-1.16,0-2.19-.28-3.02-.79-.44.2-.93.36-1.48.46-.66.12-1.51.19-2.68.21h-.08c-1.32,0-2.2-.54-2.71-1-.81-.73-1.25-1.74-1.25-2.84,0-.41.07-.83.2-1.24l.19-.64c.14-.48.27-.95.39-1.41.07-.28.17-.7.3-1.26-.03-.04-.05-.08-.08-.13-.47-.76-.63-1.7-.45-2.62v-.05s.02-.05.02-.05c.25-1.06.9-1.95,1.84-2.5.32-.19.72-.37,1.27-.59l.08-.03c1.85-.67,3.15-.97,4.23-.97.6,0,1.14.09,1.63.27.7-.26,1.47-.39,2.28-.39,1.34,0,2.55.42,3.5,1.2.79.65,1.73,1.87,1.73,3.96,0,.52-.07,1.1-.21,1.76l-.03.15c.07.08.14.16.2.24.51.67.78,1.49.78,2.38,0,.74-.18,1.47-.55,2.17-.5,1-1.28,1.85-2.31,2.55-1.12.76-2.4,1.15-3.81,1.15Z"/>
        <path class="cls-4" d="M136.83,59.52c0-.46.1-1.06.29-1.81l.38-1.45c.03-.16.05-.29.05-.38,0-.31-.16-.47-.47-.47-.33,0-.66.16-.97.48-.32.32-.54.86-.66,1.6l-.12.72c-.12.76-.19,1.33-.22,1.71-.03.37-.14.65-.32.84-.18.19-.51.33-.98.41-.48.09-1.2.14-2.18.16-.23,0-.41-.05-.53-.16-.12-.11-.18-.25-.18-.42,0-.08.02-.17.05-.28l.21-.69c.15-.52.29-1.02.41-1.51.13-.49.32-1.31.57-2.46.03-.17.05-.33.05-.47,0-.29-.09-.48-.28-.59-.07-.05-.16-.1-.27-.17-.11-.07-.19-.14-.23-.22-.05-.07-.06-.17-.03-.28.05-.2.15-.34.32-.44.17-.1.44-.22.82-.37,1.42-.52,2.46-.78,3.12-.78.28,0,.47.04.59.11.12.07.18.2.18.37,0,.05-.01.14-.03.28l-.19.84c-.05.2-.03.29.05.29.05,0,.12-.07.22-.22.28-.36.54-.66.79-.9.25-.25.57-.46.96-.63.38-.17.83-.26,1.34-.26.59,0,1.06.15,1.43.46.37.3.55.79.55,1.46,0,.29-.05.64-.14,1.07l-.6,2.6c-.02.08-.03.19-.03.33,0,.24.09.36.28.36.16,0,.35-.09.57-.28.09-.07.18-.1.28-.1.11,0,.21.05.28.15.07.1.11.23.11.4,0,.22-.06.45-.19.69-.25.51-.67.95-1.24,1.34-.57.39-1.23.59-1.98.59-1.37,0-2.05-.65-2.05-1.95Z"/>
        <path class="cls-4" d="M145.93,67.65c-1.79,0-3.23-.28-4.38-.86-.84-.42-1.54-1.05-2-1.82-.45-.75-.69-1.61-.69-2.47,0-1,.3-1.95.87-2.75-.07-.39-.12-.81-.12-1.27,0-1.41.31-2.81.92-4.16.64-1.41,1.56-2.6,2.74-3.52,1.33-1.04,2.94-1.6,4.66-1.6.77,0,1.57.11,2.47.35l.14.04.07.03c.06-.02.11-.03.15-.04.04-.01.1-.03.17-.06.29-.1.55-.17.82-.23.33-.07.66-.1.99-.1,1.03,0,1.97.38,2.67,1.08.7.7,1.08,1.63,1.08,2.63,0,.32-.03.63-.1.91l-1.45,6.86c-.7,3.28-2.46,4.86-3.81,5.62-1.61.9-3.35,1.35-5.2,1.35Z"/>
        <path class="cls-4" d="M143,63.88c-.3-.15-.52-.35-.67-.59-.15-.25-.22-.51-.22-.78,0-.37.12-.69.35-.97.24-.28.54-.41.92-.41.62,0,1.13.29,1.52.86.18.26.38.45.58.57.2.11.49.17.87.17.57,0,1.02-.22,1.34-.65.32-.44.57-1.09.76-1.95l.14-.64s.02-.09.02-.16c0-.09-.03-.14-.09-.14-.07,0-.15.06-.24.17-.36.47-.75.86-1.19,1.15-.44.3-.98.45-1.64.45-.88,0-1.54-.22-1.96-.66-.42-.44-.63-1.05-.63-1.82,0-.95.21-1.9.63-2.83.42-.93,1.01-1.7,1.78-2.3.77-.6,1.65-.9,2.65-.9.48,0,1.03.08,1.65.24.16.06.34.1.55.14.21.03.37.05.5.05.24,0,.46-.03.65-.09.2-.06.32-.09.36-.1.08-.02.2-.06.34-.11.15-.05.28-.09.4-.11.11-.02.23-.03.34-.03.16,0,.28.04.37.13.09.09.13.2.13.34,0,.08,0,.14-.02.17l-1.46,6.93c-.36,1.68-1.09,2.83-2.21,3.46-1.12.63-2.32.94-3.61.94s-2.24-.17-2.93-.52ZM148.25,57.87c.21-.26.37-.61.48-1.05l.09-.34c.1-.4.18-.75.24-1.03.06-.29.09-.53.09-.72,0-.28-.05-.47-.15-.58-.1-.11-.24-.16-.42-.16-.3,0-.58.19-.85.57-.27.38-.49.84-.65,1.37-.16.53-.24,1-.24,1.39,0,.64.24.97.71.97.26,0,.5-.13.71-.4Z"/>
      </g>
      <path class="cls-4" d="M172.28,44.29c2.02-5.16,5.95-11.75,2.76-17.22-3.16-5.42-11.79-5.3-17.15-4.09-2.76.62-5.53,1.78-7.39,3.98l-.2.06c-2.8-4.81-9.43-5.96-13.7-2.37-3.6-2.98-9.13-2.76-12.6.32-.29.26-1.01,1.23-1.24,1.23-2.85-4.55-9.29-4.69-13.7-2.48-2.85-1.8-6.49-1.62-9.66-.89-1.91.44-3.52,1.18-5.14,2.26-3.82-3.07-9.13-3.26-13.79-2.56-2.65.4-5.24,1.28-7.44,2.81-3-3.46-8.3-4.17-12.06-1.51-2.85-1.89-6.89-2-10.1-1.02-.52.16-2.01.94-2.36.92-.71-.05-2.49-1.43-3.51-1.3-.22-.18-.08-.14,0-.27.16-.24.44-.46.63-.68,3.92-4.49,9-10.74,5.86-17.05-5.25-10.58-23.86-.25-20.73,10.04.17.55,1.22,2.3,1.22,2.48,0,.4-1.07.91-1.31,1.3-.22.05-.85-1.01-1.08-1.24-1.6-1.58-3.76-1.69-5.89-1.78-6.12-.27-16.63-1.15-14.21,8.26-1.94,5.18-3.48,10.67-5.63,15.76-.87,2.07-1.28,1.77-2.5,3.25-2.71,3.28-1.22,7.98,2.92,8.87,2.96.64,9.04.44,12.15.17,1.31-.11,2.5-.64,3.59-1.34.49.21.92.53,1.42.73,2.51.97,9.59,1.12,12.09.17.31-.12,1.4-.77,1.52-.76.24.01,1.34.58,1.77.7,3.25.91,6.79.34,9.77-1.14,5.95,3.27,13.07,1.82,18.36-2.02,3.22,4.35,9.05,4.61,13.74,2.69.3-.12.86-.1,1.19-.03l4.78,1.03c4.9.72,5.32-.8,7.31-.7,10.51.52,60.06,9.83,60.32,9.32.76,1.08,1.36,2.29,2.32,3.23,8.37,8.15,26.43.78,29.01-9.91,1.78-7.38-4.89-11.06-11.33-9.21ZM31.1,43.2c1.62,2.02,2.88,3.72-.81,3.98-1.71.12-6.33.21-7.65-.71-1.28-.89-1.74-3.82-2.08-5.32-.29-1.26-.52-2.56-.75-3.84-.51.31-1.01.69-1.31,1.23-.37.68-1.61,4.45-1.57,5.14.06,1.4,1.65,2.89-.65,3.33-2.2.42-6.94.32-9.29.18-.49-.03-1.87-.15-2.19-.41-1.28-1.04,1.41-2.33,1.92-2.88.4-.43,1.13-2.44,1.4-3.12,2.26-5.58,4.06-11.43,6.03-17.12.28-1.13-1.51-3.14.3-3.67.95-.28,2.47-.19,3.49-.21,2.11-.04,5.99-.25,7.92.17.21.05.63.34.72.52.43.93-1.67,2.05-2.2,2.6-.79.82-2.08,4.68-2.53,5.96-.29.84-.7,1.82-.75,2.67,4.81-3.91,9.87-7.54,14.46-11.71,1.81-1.64,6.61-6.14,6.84-8.51.16-1.6-1.35-2.09-2.67-1.98-1.34.11-2.83,1.08-3.6,2.15-.45.63-.53,1.27-.98,1.83-1.03-3.73,2.67-6.99,5.8-8.25,3.94-1.58,7.5-.51,6.93,4.33-.58,4.92-8.95,12.38-12.66,15.56-2.44,2.09-5.06,3.98-7.44,6.13l3.33,11.96ZM57.03,46.79c-3.2.83-8.68.63-9.84-3.19-2.32,2.51-5.61,4.04-9.07,3.11-4.09-1.1-3.6-4.64-2.58-7.84.63-1.97,2.31-5.34,2.57-7.15.26-1.77-2.48-2.03-.07-3.77,2.34-1.68,7.71-1.92,9.26.94.91,1.68.3,3.27-.25,4.91-.55,1.66-2.1,4.67-2.32,6.17-.04.29-.07.72.12.96,1.34.91,2.33-.44,2.87-1.54,1.15-2.34,1.76-5.3,2.83-7.72.37-1.56-1.85-1.6-.7-3.16,1.29-1.75,5.14-2.05,7.09-1.6,6.89,1.57.41,10.79-.43,14.7-.1.5.15.84.6,1.02,1.79.71,4.59-2.19,5.53-3.53.28-.39,1.17-1.82,1.24-2.2.09-.53-.92-1.29-1.27-1.83-1.1-1.69-1.3-3.5-.63-5.4,1.58-4.5,8.08-3.79,8.5,1.24.55,6.63-7.43,14.29-13.45,15.86ZM84.94,47.17c-2.68.24-4.15-.4-4.73-3.15-1.65,1.59-3.75,2.94-6.1,3.15-8.24.74-7.76-8.19-1.46-10.92,3.01-1.3,6.75-1,9.9-.38.77-1.76,3.9-6.71-.14-6.38.38,3.61-2.91,5.2-6.08,4.78-2.31-.3-2.94-2.54-1.58-4.3,2.81-3.64,14.06-4.64,16.98-.96,2.67,3.36-1.05,8.12-1.85,11.43-.08.33-.09.63-.07.96.86.33,2.22-1.95,2.15.05-.1,2.73-4.54,5.49-7.01,5.7ZM116.37,42.03c0,1.05,1.42.2,1.72-.34.73.63.24,2.08-.23,2.78-1.84,2.75-6.93,3.53-9.66,1.9-4.52-2.7.99-9.39,1.87-12.85-.11-1.61-1.84-.98-2.67-.2-1.88,1.77-2.97,7.8-4.28,10.25-.29,1.17,1.88,1.77.65,2.84-.35.31-1.49.45-1.98.49-2.36.16-7.04.25-9.32,0-.86-.09-1.85-.64-1.17-1.58.3-.4.98-.62,1.38-.95.48-.4.72-.79.98-1.35,1.67-3.52,2.67-7.72,4.33-11.29.46-1.46-1.36-1.39-1.03-2.82.22-.96,2.78-1.62,3.67-1.81,3-.65,7.44-.92,7.13,3.36.61-.47.99-1.13,1.58-1.64,1.81-1.57,4.19-2.25,6.57-2.06,8.03,1.88,1.68,10.54.47,15.28ZM146.7,32.21c-.37,1.27-1.65,2.32-2.71,3.04-2.83,1.93-6.26,3.31-9.11,5.27,2.72,3.09,4.54-.74,6.38-2.52,1.78-.54,3.46,1.56,3.61,3.2.51,5.6-7.37,8.12-10.66,3.95-.3-.38-1.3-2.28-1.42-2.35-.63-.36-1.61,1.38-1.96,1.76-.98,1.05-2.22,2.39-3.71,2.59-4.79.63-9.28-3.59-4.72-7.46l11.24-6.71c-.9-1.57-2.23-2-3.57-.55-1.14,1.24-1.44,3.21-3.61,1.83-1.98-1.26-1.22-4.37.19-5.8,1.78-1.81,5.4-2.08,7.26-.28.49.47,2.03,3.14,2.37,3.08,1.37-1.21,3-3.79,4.87-4.18,3.25-.67,6.55,1.64,5.53,5.12ZM178.79,53.89c-2.99,6.29-13.34,10.91-19.71,7.36-5.6-3.12-2.96-11.11-1.33-15.87-.72.32-1.36.81-2.1,1.12-4.15,1.71-9.91.27-8.52-5.23,1.55-6.1,9.39-6.67,14.45-5.34.48-1.33,2.63-4.75,1.58-6.02-.39-.48-1.29-.44-1.84-.42,1.19,3.73-4.46,5.86-7.11,4.44-1.98-1.07-1.22-3.49.19-4.71,3.07-2.65,13.41-3.72,16.32-.64,1.98,2.09.87,5.7.02,8.07-1.77,4.89-4.27,9.59-5.76,14.66-1.12,3.82-2.65,10.88,3.97,9.05,2.8-.77,6.38-5.11,4.53-7.89-.89-1.34-1.77-1.02-3.06-1.19-.44-.06.04-.67.21-.89,2.64-3.47,11.34-3.21,8.16,3.5Z"/>
      <path class="cls-2" d="M19.79,37.3c-.51.31-1.01.69-1.31,1.23-.37.68-1.6,4.45-1.57,5.14.06,1.4,1.65,2.89-.65,3.33s-6.94.32-9.29.18c-.49-.03-1.87-.15-2.19-.41-1.28-1.04,1.41-2.33,1.92-2.88.4-.43,1.13-2.43,1.4-3.12,2.26-5.58,4.06-11.43,6.03-17.12.28-1.13-1.51-3.14.3-3.67.95-.28,2.47-.19,3.49-.21,2.11-.04,5.99-.25,7.92.17.21.05.63.34.72.52.43.93-1.67,2.05-2.2,2.59-.79.82-2.08,4.68-2.53,5.96-.29.84-.7,1.82-.75,2.67,4.81-3.9,9.87-7.54,14.46-11.71,1.81-1.64,6.61-6.14,6.84-8.51.15-1.6-1.35-2.09-2.67-1.98s-2.83,1.08-3.6,2.15c-.45.62-.53,1.27-.98,1.83-1.03-3.73,2.67-6.99,5.8-8.24,3.94-1.58,7.5-.51,6.93,4.33-.58,4.92-8.95,12.38-12.66,15.56-2.44,2.09-5.06,3.98-7.44,6.13l3.34,11.96c1.62,2.02,2.88,3.72-.81,3.98-1.71.12-6.33.21-7.66-.71s-1.74-3.82-2.08-5.32c-.29-1.27-.51-2.56-.75-3.84Z"/>
      <path class="cls-2" d="M170.72,28.58c1.98,2.09.87,5.69.01,8.07-1.77,4.89-4.27,9.59-5.76,14.66-1.12,3.82-2.65,10.88,3.98,9.05,2.8-.77,6.38-5.1,4.53-7.89-.89-1.34-1.78-1.02-3.06-1.19-.44-.06.04-.67.21-.89,2.63-3.47,11.34-3.21,8.16,3.5-2.99,6.29-13.34,10.91-19.71,7.37-5.6-3.12-2.96-11.11-1.33-15.86-.72.32-1.36.81-2.1,1.12-4.15,1.71-9.91.27-8.52-5.23,1.55-6.1,9.39-6.67,14.45-5.34.48-1.33,2.63-4.75,1.58-6.02-.39-.47-1.29-.44-1.85-.41,1.19,3.73-4.46,5.86-7.11,4.44-1.98-1.07-1.22-3.49.19-4.71,3.07-2.66,13.4-3.72,16.32-.64ZM160.49,38.26c-2.28-.4-4.6,1.23-3.8,3.67,2.31.82,3.15-2.05,3.8-3.67Z"/>
      <path class="cls-2" d="M47.19,43.61c-2.32,2.51-5.61,4.04-9.07,3.11-4.09-1.1-3.6-4.64-2.58-7.84.63-1.97,2.3-5.35,2.57-7.15s-2.48-2.03-.07-3.77c2.34-1.68,7.71-1.92,9.26.94.91,1.68.29,3.27-.25,4.91s-2.1,4.67-2.32,6.17c-.04.29-.07.72.12.96,1.34.91,2.33-.44,2.87-1.54,1.16-2.34,1.77-5.3,2.84-7.72.37-1.56-1.85-1.6-.7-3.16,1.29-1.75,5.13-2.05,7.09-1.6,6.89,1.57.41,10.79-.44,14.7-.1.5.15.84.6,1.02,1.79.71,4.59-2.19,5.53-3.53.28-.39,1.17-1.82,1.24-2.2.09-.53-.92-1.29-1.27-1.83-1.1-1.69-1.3-3.5-.63-5.4,1.58-4.5,8.08-3.79,8.5,1.24.55,6.63-7.43,14.29-13.45,15.86-3.19.83-8.68.63-9.84-3.19Z"/>
      <path class="cls-2" d="M107.75,30.45c.61-.47.99-1.13,1.58-1.64,1.81-1.57,4.19-2.25,6.57-2.06,8.03,1.88,1.68,10.54.47,15.28,0,1.05,1.42.19,1.72-.34.73.63.24,2.08-.23,2.78-1.84,2.75-6.93,3.53-9.66,1.9-4.52-2.7.99-9.38,1.87-12.85-.11-1.61-1.84-.98-2.67-.2-1.88,1.77-2.97,7.8-4.28,10.25-.29,1.17,1.88,1.77.65,2.84-.35.31-1.49.46-1.98.49-2.36.16-7.04.25-9.32,0-.86-.1-1.85-.65-1.17-1.58.3-.4.98-.62,1.38-.95.48-.4.72-.79.98-1.35,1.67-3.52,2.67-7.72,4.33-11.29.46-1.46-1.36-1.39-1.03-2.82.22-.96,2.78-1.62,3.67-1.81,3-.65,7.44-.92,7.13,3.36Z"/>
      <path class="cls-2" d="M132.8,42.81c-.62-.36-1.61,1.38-1.96,1.76-.98,1.05-2.21,2.39-3.71,2.59-4.79.63-9.29-3.59-4.72-7.46l11.24-6.72c-.9-1.57-2.23-2-3.57-.55-1.14,1.24-1.44,3.21-3.61,1.83-1.98-1.26-1.22-4.37.18-5.8,1.78-1.81,5.4-2.08,7.27-.28.49.47,2.03,3.14,2.37,3.08,1.37-1.21,3-3.79,4.87-4.18,3.25-.67,6.55,1.63,5.53,5.12-.37,1.27-1.65,2.32-2.71,3.04-2.84,1.93-6.27,3.31-9.11,5.27,2.72,3.09,4.54-.74,6.39-2.52,1.78-.54,3.46,1.56,3.61,3.2.51,5.6-7.37,8.12-10.66,3.95-.3-.38-1.3-2.28-1.42-2.35Z"/>
      <path class="cls-2" d="M89.8,41.41c.86.33,2.22-1.95,2.14.05-.1,2.73-4.54,5.49-7.01,5.7-2.68.24-4.15-.4-4.73-3.15-1.65,1.59-3.75,2.94-6.1,3.15-8.24.74-7.76-8.2-1.47-10.92,3.01-1.3,6.75-1,9.9-.38.77-1.76,3.9-6.71-.14-6.38.38,3.6-2.91,5.2-6.08,4.78-2.31-.3-2.94-2.54-1.58-4.3,2.81-3.64,14.06-4.64,16.98-.96,2.67,3.36-1.04,8.12-1.85,11.43-.08.33-.09.63-.07.96ZM81.44,38.26c-1.18-.06-2.19-.07-3.09.82-.96.96-1.58,3.45.49,2.96,1.45-.34,2.1-2.56,2.59-3.78Z"/>
      <path class="cls-4" d="M160.49,38.26c-.66,1.62-1.49,4.48-3.8,3.67-.79-2.43,1.53-4.06,3.8-3.67Z"/>
      <path class="cls-4" d="M81.44,38.26c-.49,1.21-1.14,3.43-2.59,3.78-2.07.49-1.45-2-.49-2.96.89-.89,1.9-.88,3.09-.82Z"/>
      <text class="cls-3" transform="translate(59.42 61.26)"><tspan class="cls-5" x="0" y="0">P</tspan><tspan x="11.63" y="0">ac</tspan><tspan class="cls-6" x="31.9" y="0">k</tspan><tspan class="cls-1" x="43.05" y="0">agi</tspan><tspan class="cls-7" x="71.29" y="0">n</tspan><tspan x="83.35" y="0">g</tspan></text>
    </g>
  </g>
</svg>